<svg id="svg" version="1.1" xmlns="http://www.w3.org/2000/svg" xmlns:xlink="http://www.w3.org/1999/xlink" width="400" height="80.88235294117648" viewBox="0, 0, 400,80.88235294117648"><g id="svgg"><path id="path0" d="M321.500 39.261 L 321.500 74.333 325.750 74.333 L 330.000 74.333 330.000 39.351 C 330.000 6.918,329.980 4.361,329.723 4.263 C 329.571 4.205,327.659 4.164,325.473 4.173 L 321.500 4.189 321.500 39.261 M341.000 7.835 L 341.000 11.500 353.167 11.500 L 365.333 11.500 365.333 42.917 L 365.333 74.333 369.399 74.333 C 372.952 74.333,373.477 74.300,373.566 74.070 C 373.621 73.925,373.667 59.787,373.667 42.653 L 373.667 11.500 385.667 11.500 L 397.667 11.500 397.667 8.006 C 397.667 4.715,397.648 4.502,397.343 4.338 C 397.122 4.220,388.102 4.166,369.009 4.168 L 341.000 4.170 341.000 7.835 " stroke="none" fill="#6b45bc" fill-rule="evenodd"></path><path id="path1" d="M92.167 3.333 C 92.167 3.429,91.667 3.500,91.000 3.500 C 90.333 3.500,89.833 3.571,89.833 3.667 C 89.833 3.758,89.463 3.833,89.010 3.833 C 88.557 3.833,88.140 3.908,88.083 4.000 C 88.027 4.092,87.765 4.167,87.502 4.167 C 87.239 4.167,86.911 4.279,86.774 4.417 C 86.636 4.554,86.293 4.667,86.012 4.667 C 85.730 4.667,85.500 4.742,85.500 4.833 C 85.500 4.925,85.279 5.000,85.010 5.000 C 84.740 5.000,84.473 5.075,84.417 5.167 C 84.360 5.258,84.168 5.333,83.990 5.333 C 83.812 5.333,83.667 5.408,83.667 5.500 C 83.667 5.592,83.491 5.667,83.276 5.667 C 82.810 5.667,81.833 6.126,81.833 6.346 C 81.833 6.430,81.646 6.500,81.417 6.500 C 81.188 6.500,81.000 6.575,81.000 6.667 C 81.000 6.758,80.850 6.833,80.667 6.833 C 80.483 6.833,80.333 6.908,80.333 7.000 C 80.333 7.092,80.183 7.167,80.000 7.167 C 79.817 7.167,79.667 7.228,79.667 7.302 C 79.667 7.377,79.404 7.541,79.083 7.667 C 78.762 7.793,78.500 7.994,78.500 8.114 C 78.500 8.235,78.350 8.333,78.167 8.333 C 77.983 8.333,77.833 8.408,77.833 8.500 C 77.833 8.592,77.721 8.667,77.583 8.667 C 77.446 8.667,77.333 8.742,77.333 8.833 C 77.333 8.925,77.217 9.000,77.076 9.000 C 76.934 9.000,76.631 9.187,76.402 9.417 C 76.172 9.646,75.924 9.833,75.850 9.833 C 75.777 9.833,75.497 10.040,75.229 10.292 C 74.962 10.544,74.444 10.972,74.080 11.244 C 73.273 11.846,70.167 14.964,70.167 15.173 C 70.167 15.255,69.904 15.585,69.583 15.906 C 69.262 16.226,69.000 16.532,69.000 16.585 C 69.000 16.692,68.766 16.988,68.208 17.584 C 68.002 17.804,67.833 18.101,67.833 18.242 C 67.833 18.384,67.758 18.500,67.667 18.500 C 67.575 18.500,67.500 18.612,67.500 18.750 C 67.500 18.887,67.425 19.000,67.333 19.000 C 67.242 19.000,67.167 19.150,67.167 19.333 C 67.167 19.519,67.056 19.667,66.917 19.667 C 66.778 19.667,66.667 19.815,66.667 20.000 C 66.667 20.183,66.606 20.333,66.531 20.333 C 66.457 20.333,66.293 20.596,66.167 20.917 C 66.041 21.237,65.877 21.500,65.802 21.500 C 65.728 21.500,65.667 21.646,65.667 21.823 C 65.667 22.001,65.592 22.193,65.500 22.250 C 65.408 22.307,65.333 22.466,65.333 22.605 C 65.333 22.744,65.221 22.970,65.083 23.107 C 64.946 23.245,64.833 23.502,64.833 23.679 C 64.833 23.855,64.758 24.000,64.667 24.000 C 64.575 24.000,64.500 24.188,64.500 24.417 C 64.500 24.646,64.425 24.833,64.333 24.833 C 64.242 24.833,64.167 25.021,64.167 25.250 C 64.167 25.479,64.092 25.667,64.000 25.667 C 63.908 25.667,63.833 25.892,63.833 26.167 C 63.833 26.442,63.758 26.667,63.667 26.667 C 63.575 26.667,63.500 26.921,63.500 27.232 C 63.500 27.581,63.404 27.834,63.250 27.894 C 63.093 27.954,63.000 28.209,63.000 28.578 C 63.000 28.902,62.925 29.167,62.833 29.167 C 62.742 29.167,62.667 29.504,62.667 29.917 C 62.667 30.329,62.592 30.667,62.500 30.667 C 62.408 30.667,62.333 31.079,62.333 31.583 C 62.333 32.087,62.258 32.500,62.167 32.500 C 62.070 32.500,62.000 33.051,62.000 33.819 C 62.000 34.727,61.935 35.161,61.792 35.208 C 61.633 35.261,61.583 36.237,61.583 39.333 C 61.583 42.430,61.633 43.405,61.792 43.458 C 61.936 43.507,62.000 43.955,62.000 44.921 C 62.000 45.687,62.075 46.360,62.167 46.417 C 62.258 46.473,62.333 46.890,62.333 47.343 C 62.333 47.796,62.408 48.167,62.500 48.167 C 62.592 48.167,62.667 48.462,62.667 48.823 C 62.667 49.185,62.742 49.527,62.833 49.583 C 62.925 49.640,63.000 49.944,63.000 50.260 C 63.000 50.659,63.076 50.833,63.250 50.833 C 63.425 50.833,63.500 51.009,63.500 51.417 C 63.500 51.737,63.575 52.000,63.667 52.000 C 63.758 52.000,63.833 52.225,63.833 52.500 C 63.833 52.775,63.908 53.000,64.000 53.000 C 64.092 53.000,64.167 53.188,64.167 53.417 C 64.167 53.646,64.242 53.833,64.333 53.833 C 64.425 53.833,64.500 54.058,64.500 54.333 C 64.500 54.608,64.575 54.833,64.667 54.833 C 64.758 54.833,64.833 54.986,64.833 55.172 C 64.833 55.358,64.946 55.554,65.083 55.606 C 65.221 55.659,65.333 55.844,65.333 56.018 C 65.333 56.191,65.408 56.333,65.500 56.333 C 65.592 56.333,65.667 56.521,65.667 56.750 C 65.667 56.979,65.742 57.167,65.833 57.167 C 65.925 57.167,66.000 57.317,66.000 57.500 C 66.000 57.683,66.075 57.833,66.167 57.833 C 66.258 57.833,66.333 57.983,66.333 58.167 C 66.333 58.350,66.408 58.500,66.500 58.500 C 66.592 58.500,66.667 58.612,66.667 58.750 C 66.667 58.887,66.779 59.000,66.917 59.000 C 67.056 59.000,67.167 59.148,67.167 59.333 C 67.167 59.517,67.242 59.667,67.333 59.667 C 67.425 59.667,67.500 59.817,67.500 60.000 C 67.500 60.183,67.575 60.333,67.667 60.333 C 67.758 60.333,67.833 60.407,67.833 60.498 C 67.833 60.664,68.168 61.121,68.708 61.692 C 68.869 61.861,69.000 62.058,69.000 62.130 C 69.000 62.201,69.150 62.368,69.333 62.500 C 69.517 62.632,69.667 62.842,69.667 62.967 C 69.667 63.252,74.596 68.167,74.882 68.167 C 74.998 68.167,75.201 68.317,75.333 68.500 C 75.465 68.683,75.635 68.833,75.710 68.833 C 75.857 68.833,76.110 69.026,76.750 69.625 C 76.971 69.831,77.288 70.000,77.456 70.000 C 77.623 70.000,77.868 70.150,78.000 70.333 C 78.132 70.517,78.366 70.667,78.519 70.667 C 78.672 70.667,78.841 70.779,78.894 70.917 C 78.946 71.054,79.142 71.167,79.328 71.167 C 79.514 71.167,79.667 71.242,79.667 71.333 C 79.667 71.425,79.817 71.500,80.000 71.500 C 80.183 71.500,80.333 71.575,80.333 71.667 C 80.333 71.758,80.446 71.833,80.583 71.833 C 80.721 71.833,80.833 71.908,80.833 72.000 C 80.833 72.092,80.979 72.167,81.157 72.167 C 81.335 72.167,81.527 72.242,81.583 72.333 C 81.640 72.425,81.861 72.500,82.075 72.500 C 82.289 72.500,82.508 72.612,82.560 72.750 C 82.613 72.887,82.809 73.000,82.995 73.000 C 83.181 73.000,83.333 73.075,83.333 73.167 C 83.333 73.258,83.479 73.333,83.657 73.333 C 83.835 73.333,84.027 73.408,84.083 73.500 C 84.140 73.592,84.407 73.667,84.677 73.667 C 84.946 73.667,85.167 73.742,85.167 73.833 C 85.167 73.925,85.387 74.000,85.657 74.000 C 85.926 74.000,86.193 74.075,86.250 74.167 C 86.307 74.258,86.641 74.333,86.992 74.333 C 87.406 74.333,87.665 74.421,87.727 74.583 C 87.790 74.748,88.051 74.833,88.495 74.833 C 88.864 74.833,89.167 74.908,89.167 75.000 C 89.167 75.094,89.639 75.167,90.250 75.167 C 90.861 75.167,91.333 75.239,91.333 75.333 C 91.333 75.441,93.222 75.500,96.667 75.500 C 100.111 75.500,102.000 75.441,102.000 75.333 C 102.000 75.241,102.441 75.167,102.990 75.167 C 103.535 75.167,104.027 75.092,104.083 75.000 C 104.140 74.908,104.484 74.833,104.848 74.833 C 105.283 74.833,105.543 74.747,105.606 74.583 C 105.666 74.429,105.919 74.333,106.268 74.333 C 106.579 74.333,106.833 74.258,106.833 74.167 C 106.833 74.075,107.054 74.000,107.323 74.000 C 107.593 74.000,107.860 73.925,107.917 73.833 C 107.973 73.742,108.240 73.667,108.510 73.667 C 108.779 73.667,109.000 73.592,109.000 73.500 C 109.000 73.408,109.183 73.333,109.407 73.333 C 109.631 73.333,109.860 73.258,109.917 73.167 C 109.973 73.075,110.168 73.000,110.348 73.000 C 110.529 73.000,110.720 72.887,110.773 72.750 C 110.826 72.612,111.011 72.500,111.184 72.500 C 111.358 72.500,111.500 72.425,111.500 72.333 C 111.500 72.242,111.688 72.167,111.917 72.167 C 112.146 72.167,112.333 72.092,112.333 72.000 C 112.333 71.908,112.483 71.833,112.667 71.833 C 112.850 71.833,113.000 71.758,113.000 71.667 C 113.000 71.575,113.115 71.500,113.256 71.500 C 113.560 71.500,114.308 71.044,114.686 70.629 C 114.834 70.467,115.099 70.333,115.274 70.333 C 115.450 70.333,115.701 70.183,115.833 70.000 C 115.965 69.817,116.180 69.667,116.309 69.667 C 116.439 69.667,116.719 69.479,116.931 69.250 C 117.144 69.021,117.381 68.833,117.459 68.833 C 117.585 68.833,118.129 68.382,119.273 67.329 C 119.470 67.148,119.685 67.000,119.752 67.000 C 119.921 67.000,122.667 64.187,122.667 64.014 C 122.667 63.937,122.967 63.564,123.333 63.187 C 123.700 62.809,124.000 62.459,124.000 62.409 C 124.000 62.308,124.242 62.004,124.792 61.416 C 124.998 61.196,125.167 60.899,125.167 60.758 C 125.167 60.616,125.242 60.500,125.333 60.500 C 125.425 60.500,125.500 60.396,125.500 60.268 C 125.500 60.140,125.612 59.992,125.750 59.940 C 125.888 59.887,126.000 59.729,126.000 59.589 C 126.000 59.448,126.061 59.333,126.136 59.333 C 126.210 59.333,126.374 59.071,126.500 58.750 C 126.626 58.429,126.790 58.167,126.864 58.167 C 126.939 58.167,127.000 58.017,127.000 57.833 C 127.000 57.650,127.075 57.500,127.167 57.500 C 127.258 57.500,127.333 57.358,127.333 57.184 C 127.333 57.011,127.446 56.826,127.583 56.773 C 127.721 56.720,127.833 56.525,127.833 56.339 C 127.833 56.152,127.908 56.000,128.000 56.000 C 128.092 56.000,128.167 55.850,128.167 55.667 C 128.167 55.483,128.242 55.333,128.333 55.333 C 128.425 55.333,128.500 55.146,128.500 54.917 C 128.500 54.688,128.575 54.500,128.667 54.500 C 128.758 54.500,128.833 54.275,128.833 54.000 C 128.833 53.725,128.908 53.500,129.000 53.500 C 129.092 53.500,129.167 53.313,129.167 53.083 C 129.167 52.854,129.240 52.667,129.330 52.667 C 129.420 52.667,129.538 52.460,129.593 52.208 C 129.648 51.956,129.751 51.600,129.823 51.417 C 130.139 50.611,130.333 49.860,130.333 49.447 C 130.333 49.201,130.408 49.000,130.500 49.000 C 130.592 49.000,130.667 48.587,130.667 48.083 C 130.667 47.579,130.742 47.167,130.833 47.167 C 130.925 47.167,131.000 46.786,131.000 46.321 C 131.000 45.792,131.094 45.383,131.250 45.226 C 131.447 45.029,131.500 44.505,131.500 42.738 C 131.500 41.357,131.564 40.500,131.667 40.500 C 131.762 40.500,131.833 40.003,131.833 39.343 C 131.833 38.707,131.758 38.140,131.667 38.083 C 131.570 38.024,131.500 37.108,131.500 35.902 C 131.500 34.208,131.454 33.805,131.250 33.727 C 131.064 33.656,131.000 33.359,131.000 32.566 C 131.000 31.966,130.927 31.500,130.833 31.500 C 130.742 31.500,130.667 31.129,130.667 30.677 C 130.667 30.224,130.592 29.807,130.500 29.750 C 130.408 29.693,130.333 29.389,130.333 29.073 C 130.333 28.758,130.258 28.500,130.167 28.500 C 130.075 28.500,130.000 28.238,130.000 27.917 C 130.000 27.596,129.925 27.333,129.833 27.333 C 129.742 27.333,129.667 27.108,129.667 26.833 C 129.667 26.500,129.583 26.333,129.417 26.333 C 129.242 26.333,129.167 26.157,129.167 25.750 C 129.167 25.429,129.092 25.167,129.000 25.167 C 128.908 25.167,128.833 25.017,128.833 24.833 C 128.833 24.650,128.758 24.500,128.667 24.500 C 128.575 24.500,128.500 24.279,128.500 24.010 C 128.500 23.740,128.425 23.473,128.333 23.417 C 128.242 23.360,128.167 23.168,128.167 22.990 C 128.167 22.812,128.093 22.667,128.003 22.667 C 127.913 22.667,127.793 22.479,127.735 22.250 C 127.678 22.021,127.564 21.833,127.482 21.833 C 127.400 21.833,127.333 21.683,127.333 21.500 C 127.333 21.317,127.263 21.167,127.177 21.167 C 127.092 21.167,126.927 20.904,126.811 20.583 C 126.695 20.262,126.540 20.000,126.467 20.000 C 126.393 20.000,126.333 19.882,126.333 19.738 C 126.333 19.594,126.240 19.372,126.125 19.244 C 125.630 18.692,125.500 18.504,125.500 18.340 C 125.500 18.245,125.438 18.167,125.361 18.167 C 125.285 18.167,125.118 17.960,124.989 17.708 C 124.860 17.456,124.585 17.085,124.377 16.883 C 124.170 16.681,124.000 16.448,124.000 16.366 C 124.000 16.284,123.775 15.981,123.500 15.693 C 123.225 15.405,123.000 15.126,123.000 15.073 C 123.000 14.926,122.543 14.500,122.385 14.500 C 122.308 14.500,122.097 14.298,121.915 14.052 C 121.491 13.479,120.688 12.676,120.115 12.252 C 119.868 12.070,119.667 11.844,119.667 11.750 C 119.667 11.656,119.467 11.430,119.222 11.248 C 118.978 11.066,118.684 10.823,118.568 10.708 C 118.452 10.594,118.288 10.500,118.204 10.500 C 118.120 10.500,117.781 10.237,117.450 9.917 C 117.120 9.596,116.750 9.333,116.628 9.333 C 116.507 9.333,116.299 9.183,116.167 9.000 C 116.035 8.817,115.793 8.667,115.630 8.667 C 115.467 8.667,115.333 8.592,115.333 8.500 C 115.333 8.408,115.229 8.333,115.101 8.333 C 114.973 8.333,114.826 8.221,114.773 8.083 C 114.720 7.946,114.562 7.833,114.422 7.833 C 114.282 7.833,114.167 7.758,114.167 7.667 C 114.167 7.575,114.057 7.500,113.924 7.500 C 113.791 7.500,113.300 7.275,112.833 7.000 C 112.367 6.725,111.885 6.500,111.763 6.500 C 111.641 6.500,111.447 6.388,111.333 6.250 C 111.219 6.112,110.985 6.000,110.813 6.000 C 110.641 6.000,110.500 5.925,110.500 5.833 C 110.500 5.742,110.313 5.667,110.083 5.667 C 109.854 5.667,109.667 5.592,109.667 5.500 C 109.667 5.408,109.442 5.333,109.167 5.333 C 108.892 5.333,108.667 5.258,108.667 5.167 C 108.667 5.075,108.484 5.000,108.260 5.000 C 108.036 5.000,107.807 4.925,107.750 4.833 C 107.693 4.742,107.397 4.667,107.091 4.667 C 106.751 4.667,106.498 4.570,106.440 4.417 C 106.384 4.272,106.135 4.167,105.848 4.167 C 105.576 4.167,105.307 4.092,105.250 4.000 C 105.193 3.908,104.776 3.833,104.323 3.833 C 103.871 3.833,103.500 3.758,103.500 3.667 C 103.500 3.571,103.000 3.500,102.333 3.500 C 101.667 3.500,101.167 3.429,101.167 3.333 C 101.167 3.226,99.556 3.167,96.667 3.167 C 93.778 3.167,92.167 3.226,92.167 3.333 M173.000 3.333 C 173.000 3.427,172.531 3.500,171.927 3.500 C 171.336 3.500,170.807 3.575,170.750 3.667 C 170.693 3.758,170.276 3.833,169.823 3.833 C 169.371 3.833,169.000 3.908,169.000 4.000 C 169.000 4.092,168.743 4.167,168.429 4.167 C 168.114 4.167,167.745 4.279,167.607 4.417 C 167.470 4.554,167.127 4.667,166.845 4.667 C 166.564 4.667,166.333 4.742,166.333 4.833 C 166.333 4.925,166.108 5.000,165.833 5.000 C 165.558 5.000,165.333 5.075,165.333 5.167 C 165.333 5.258,165.146 5.333,164.917 5.333 C 164.688 5.333,164.500 5.408,164.500 5.500 C 164.500 5.592,164.275 5.667,164.000 5.667 C 163.725 5.667,163.500 5.742,163.500 5.833 C 163.500 5.925,163.348 6.000,163.161 6.000 C 162.975 6.000,162.780 6.112,162.727 6.250 C 162.674 6.388,162.489 6.500,162.316 6.500 C 162.142 6.500,162.000 6.575,162.000 6.667 C 162.000 6.758,161.813 6.833,161.583 6.833 C 161.354 6.833,161.167 6.908,161.167 7.000 C 161.167 7.092,161.017 7.167,160.833 7.167 C 160.650 7.167,160.500 7.228,160.500 7.302 C 160.500 7.377,160.237 7.563,159.917 7.716 C 159.596 7.869,159.333 8.071,159.333 8.164 C 159.333 8.257,159.200 8.333,159.037 8.333 C 158.874 8.333,158.632 8.483,158.500 8.667 C 158.368 8.850,158.123 9.000,157.956 9.000 C 157.788 9.000,157.471 9.169,157.250 9.375 C 156.640 9.945,156.358 10.167,156.241 10.167 C 156.182 10.167,155.924 10.392,155.667 10.667 C 155.410 10.942,155.147 11.167,155.082 11.167 C 154.836 11.167,151.333 14.590,151.333 14.829 C 151.333 14.923,151.258 15.000,151.167 15.000 C 151.075 15.000,151.000 15.150,151.000 15.333 C 151.000 15.517,150.922 15.667,150.826 15.667 C 150.600 15.667,149.833 16.433,149.833 16.659 C 149.833 16.755,149.758 16.833,149.667 16.833 C 149.575 16.833,149.500 16.966,149.500 17.127 C 149.500 17.289,149.313 17.562,149.083 17.734 C 148.854 17.906,148.667 18.149,148.667 18.273 C 148.667 18.398,148.592 18.500,148.500 18.500 C 148.408 18.500,148.333 18.612,148.333 18.750 C 148.333 18.887,148.258 19.000,148.167 19.000 C 148.075 19.000,148.000 19.150,148.000 19.333 C 148.000 19.517,147.925 19.667,147.833 19.667 C 147.742 19.667,147.667 19.738,147.667 19.826 C 147.667 19.979,147.019 21.035,146.669 21.451 C 146.576 21.562,146.500 21.806,146.500 21.993 C 146.500 22.180,146.425 22.333,146.333 22.333 C 146.242 22.333,146.167 22.483,146.167 22.667 C 146.167 22.850,146.092 23.000,146.000 23.000 C 145.908 23.000,145.833 23.178,145.833 23.396 C 145.833 23.614,145.721 23.886,145.583 24.000 C 145.446 24.114,145.333 24.348,145.333 24.520 C 145.333 24.693,145.258 24.833,145.167 24.833 C 145.075 24.833,145.000 25.016,145.000 25.240 C 145.000 25.464,144.925 25.693,144.833 25.750 C 144.742 25.807,144.667 26.036,144.667 26.260 C 144.667 26.484,144.592 26.667,144.500 26.667 C 144.408 26.667,144.333 26.929,144.333 27.250 C 144.333 27.571,144.258 27.833,144.167 27.833 C 144.075 27.833,144.000 28.125,144.000 28.482 C 144.000 28.905,143.913 29.164,143.750 29.227 C 143.585 29.290,143.500 29.551,143.500 29.995 C 143.500 30.364,143.425 30.667,143.333 30.667 C 143.242 30.667,143.167 31.079,143.167 31.583 C 143.167 32.087,143.092 32.500,143.000 32.500 C 142.903 32.500,142.833 33.056,142.833 33.833 C 142.833 34.611,142.764 35.167,142.667 35.167 C 142.560 35.167,142.500 36.667,142.500 39.333 C 142.500 42.000,142.560 43.500,142.667 43.500 C 142.765 43.500,142.833 44.083,142.833 44.917 C 142.833 45.750,142.902 46.333,143.000 46.333 C 143.092 46.333,143.167 46.704,143.167 47.157 C 143.167 47.610,143.242 48.027,143.333 48.083 C 143.425 48.140,143.500 48.439,143.500 48.748 C 143.500 49.057,143.612 49.422,143.750 49.560 C 143.887 49.697,144.000 50.040,144.000 50.321 C 144.000 50.603,144.075 50.833,144.167 50.833 C 144.258 50.833,144.333 51.096,144.333 51.417 C 144.333 51.737,144.408 52.000,144.500 52.000 C 144.592 52.000,144.667 52.225,144.667 52.500 C 144.667 52.775,144.742 53.000,144.833 53.000 C 144.925 53.000,145.000 53.188,145.000 53.417 C 145.000 53.646,145.075 53.833,145.167 53.833 C 145.258 53.833,145.333 53.978,145.333 54.155 C 145.333 54.332,145.446 54.589,145.583 54.726 C 145.721 54.864,145.833 55.132,145.833 55.321 C 145.833 55.511,145.908 55.667,146.000 55.667 C 146.092 55.667,146.167 55.817,146.167 56.000 C 146.167 56.183,146.242 56.333,146.333 56.333 C 146.425 56.333,146.500 56.521,146.500 56.750 C 146.500 56.979,146.575 57.167,146.667 57.167 C 146.758 57.167,146.833 57.285,146.833 57.429 C 146.833 57.573,146.927 57.795,147.042 57.923 C 147.536 58.474,147.667 58.663,147.667 58.826 C 147.667 58.922,147.742 59.000,147.833 59.000 C 147.925 59.000,148.000 59.150,148.000 59.333 C 148.000 59.517,148.061 59.667,148.136 59.667 C 148.210 59.667,148.374 59.929,148.500 60.250 C 148.626 60.571,148.827 60.833,148.948 60.833 C 149.068 60.833,149.167 60.932,149.167 61.052 C 149.167 61.172,149.317 61.431,149.500 61.628 C 149.683 61.825,149.833 62.048,149.833 62.123 C 149.833 62.198,149.983 62.368,150.167 62.500 C 150.350 62.632,150.500 62.826,150.500 62.930 C 150.500 63.035,150.688 63.261,150.917 63.433 C 151.146 63.605,151.333 63.805,151.333 63.878 C 151.333 64.074,152.460 65.167,152.661 65.167 C 152.756 65.167,152.833 65.244,152.833 65.338 C 152.833 65.544,154.265 67.000,154.467 67.000 C 154.546 67.000,154.710 67.187,154.832 67.415 C 154.954 67.643,155.267 67.924,155.527 68.039 C 155.787 68.154,156.000 68.305,156.000 68.374 C 156.000 68.443,156.078 68.500,156.174 68.500 C 156.270 68.500,156.529 68.669,156.750 68.875 C 157.418 69.500,157.645 69.667,157.826 69.667 C 157.922 69.667,158.000 69.742,158.000 69.833 C 158.000 69.925,158.133 70.000,158.297 70.000 C 158.460 70.000,158.701 70.150,158.833 70.333 C 158.965 70.517,159.209 70.667,159.375 70.667 C 159.541 70.667,159.720 70.779,159.773 70.917 C 159.826 71.054,160.011 71.167,160.184 71.167 C 160.358 71.167,160.500 71.242,160.500 71.333 C 160.500 71.425,160.650 71.500,160.833 71.500 C 161.017 71.500,161.167 71.575,161.167 71.667 C 161.167 71.758,161.279 71.833,161.417 71.833 C 161.554 71.833,161.667 71.908,161.667 72.000 C 161.667 72.092,161.854 72.167,162.083 72.167 C 162.313 72.167,162.500 72.242,162.500 72.333 C 162.500 72.425,162.725 72.500,163.000 72.500 C 163.333 72.500,163.500 72.583,163.500 72.750 C 163.500 72.889,163.648 73.000,163.833 73.000 C 164.017 73.000,164.167 73.075,164.167 73.167 C 164.167 73.258,164.350 73.333,164.573 73.333 C 164.797 73.333,165.027 73.408,165.083 73.500 C 165.140 73.592,165.369 73.667,165.593 73.667 C 165.817 73.667,166.000 73.742,166.000 73.833 C 166.000 73.925,166.262 74.000,166.583 74.000 C 166.904 74.000,167.167 74.075,167.167 74.167 C 167.167 74.258,167.459 74.333,167.816 74.333 C 168.238 74.333,168.498 74.420,168.560 74.583 C 168.623 74.747,168.884 74.833,169.318 74.833 C 169.682 74.833,170.027 74.908,170.083 75.000 C 170.140 75.092,170.669 75.167,171.260 75.167 C 171.864 75.167,172.333 75.239,172.333 75.333 C 172.333 75.441,174.194 75.500,177.583 75.500 C 180.972 75.500,182.833 75.441,182.833 75.333 C 182.833 75.241,183.274 75.167,183.823 75.167 C 184.368 75.167,184.860 75.092,184.917 75.000 C 184.973 74.908,185.318 74.833,185.682 74.833 C 186.116 74.833,186.377 74.747,186.440 74.583 C 186.499 74.429,186.752 74.333,187.101 74.333 C 187.412 74.333,187.667 74.258,187.667 74.167 C 187.667 74.075,187.929 74.000,188.250 74.000 C 188.571 74.000,188.833 73.925,188.833 73.833 C 188.833 73.742,189.058 73.667,189.333 73.667 C 189.608 73.667,189.833 73.592,189.833 73.500 C 189.833 73.408,190.054 73.333,190.323 73.333 C 190.593 73.333,190.860 73.258,190.917 73.167 C 190.973 73.075,191.165 73.000,191.343 73.000 C 191.521 73.000,191.667 72.887,191.667 72.750 C 191.667 72.594,191.824 72.500,192.083 72.500 C 192.313 72.500,192.500 72.425,192.500 72.333 C 192.500 72.242,192.650 72.167,192.833 72.167 C 193.017 72.167,193.167 72.092,193.167 72.000 C 193.167 71.908,193.312 71.833,193.490 71.833 C 193.668 71.833,193.860 71.758,193.917 71.667 C 193.973 71.575,194.133 71.500,194.272 71.500 C 194.410 71.500,194.628 71.406,194.756 71.292 C 195.308 70.797,195.496 70.667,195.660 70.667 C 195.755 70.667,195.833 70.592,195.833 70.500 C 195.833 70.408,195.967 70.333,196.130 70.333 C 196.293 70.333,196.535 70.183,196.667 70.000 C 196.799 69.817,197.035 69.667,197.191 69.667 C 197.348 69.667,197.623 69.479,197.804 69.250 C 197.984 69.021,198.235 68.833,198.362 68.833 C 198.489 68.833,198.701 68.683,198.833 68.500 C 198.965 68.317,199.151 68.165,199.245 68.163 C 199.339 68.161,199.641 67.899,199.915 67.580 C 200.189 67.261,200.470 67.000,200.538 67.000 C 200.710 67.000,201.297 66.513,201.817 65.939 C 202.055 65.677,202.531 65.193,202.875 64.863 C 203.219 64.533,203.500 64.186,203.500 64.090 C 203.500 63.859,204.246 63.000,204.447 63.000 C 204.534 63.000,204.783 62.681,204.999 62.292 C 205.216 61.902,205.530 61.462,205.697 61.314 C 205.863 61.166,206.000 60.956,206.000 60.847 C 206.000 60.739,206.188 60.477,206.417 60.265 C 206.646 60.052,206.833 59.756,206.833 59.606 C 206.833 59.456,206.908 59.333,207.000 59.333 C 207.092 59.333,207.167 59.221,207.167 59.083 C 207.167 58.946,207.242 58.833,207.333 58.833 C 207.425 58.833,207.500 58.683,207.500 58.500 C 207.500 58.317,207.575 58.167,207.667 58.167 C 207.758 58.167,207.833 58.017,207.833 57.833 C 207.833 57.650,207.903 57.500,207.988 57.500 C 208.166 57.500,208.667 56.559,208.667 56.224 C 208.667 56.101,208.742 56.000,208.833 56.000 C 208.925 56.000,209.000 55.850,209.000 55.667 C 209.000 55.483,209.075 55.333,209.167 55.333 C 209.258 55.333,209.333 55.146,209.333 54.917 C 209.333 54.688,209.408 54.500,209.500 54.500 C 209.592 54.500,209.667 54.281,209.667 54.014 C 209.667 53.747,209.750 53.500,209.851 53.466 C 210.053 53.399,210.493 52.257,210.497 51.792 C 210.499 51.631,210.575 51.500,210.667 51.500 C 210.758 51.500,210.833 51.279,210.833 51.010 C 210.833 50.740,210.908 50.473,211.000 50.417 C 211.092 50.360,211.167 50.018,211.167 49.657 C 211.167 49.296,211.242 49.000,211.333 49.000 C 211.425 49.000,211.500 48.587,211.500 48.083 C 211.500 47.380,211.558 47.167,211.750 47.167 C 211.942 47.167,212.000 46.955,212.000 46.260 C 212.000 45.761,212.075 45.307,212.167 45.250 C 212.265 45.189,212.333 44.193,212.333 42.823 C 212.333 41.386,212.397 40.500,212.500 40.500 C 212.595 40.500,212.667 40.003,212.667 39.343 C 212.667 38.707,212.592 38.140,212.500 38.083 C 212.403 38.023,212.333 37.082,212.333 35.823 C 212.333 34.497,212.269 33.667,212.167 33.667 C 212.073 33.667,212.000 33.194,212.000 32.583 C 212.000 31.731,211.947 31.500,211.750 31.500 C 211.562 31.500,211.500 31.297,211.500 30.677 C 211.500 30.224,211.425 29.807,211.333 29.750 C 211.242 29.693,211.167 29.389,211.167 29.073 C 211.167 28.758,211.092 28.500,211.000 28.500 C 210.908 28.500,210.833 28.238,210.833 27.917 C 210.833 27.596,210.758 27.333,210.667 27.333 C 210.575 27.333,210.500 27.108,210.500 26.833 C 210.500 26.558,210.425 26.333,210.333 26.333 C 210.242 26.333,210.167 26.106,210.167 25.828 C 210.167 25.533,210.063 25.283,209.917 25.227 C 209.779 25.174,209.667 24.989,209.667 24.816 C 209.667 24.642,209.592 24.500,209.500 24.500 C 209.408 24.500,209.333 24.279,209.333 24.010 C 209.333 23.740,209.258 23.473,209.167 23.417 C 209.075 23.360,209.000 23.168,209.000 22.990 C 209.000 22.812,208.925 22.667,208.833 22.667 C 208.742 22.667,208.667 22.552,208.667 22.411 C 208.667 22.175,208.224 21.360,207.990 21.167 C 207.935 21.121,207.784 20.840,207.654 20.542 C 207.525 20.244,207.362 20.000,207.293 20.000 C 207.223 20.000,207.167 19.850,207.167 19.667 C 207.167 19.483,207.097 19.333,207.011 19.333 C 206.926 19.333,206.808 19.182,206.749 18.997 C 206.690 18.812,206.423 18.420,206.154 18.126 C 205.886 17.833,205.667 17.497,205.667 17.380 C 205.667 17.262,205.592 17.167,205.500 17.167 C 205.408 17.167,205.333 17.092,205.333 17.001 C 205.333 16.833,204.883 16.258,204.208 15.566 C 204.002 15.355,203.833 15.141,203.833 15.092 C 203.833 14.926,200.837 12.000,200.667 12.000 C 200.575 12.000,200.500 11.916,200.500 11.814 C 200.500 11.572,199.329 10.500,199.064 10.500 C 198.952 10.500,198.613 10.237,198.310 9.917 C 198.008 9.596,197.643 9.333,197.500 9.333 C 197.357 9.333,197.132 9.183,197.000 9.000 C 196.868 8.817,196.661 8.667,196.539 8.667 C 196.418 8.667,196.117 8.479,195.869 8.250 C 195.622 8.021,195.326 7.833,195.210 7.833 C 195.095 7.833,195.000 7.758,195.000 7.667 C 195.000 7.575,194.856 7.500,194.681 7.500 C 194.505 7.500,194.336 7.444,194.306 7.375 C 194.237 7.221,192.864 6.500,192.639 6.500 C 192.549 6.500,192.364 6.388,192.226 6.250 C 192.089 6.112,191.832 6.000,191.655 6.000 C 191.478 6.000,191.333 5.925,191.333 5.833 C 191.333 5.742,191.183 5.667,191.000 5.667 C 190.817 5.667,190.667 5.592,190.667 5.500 C 190.667 5.408,190.446 5.333,190.177 5.333 C 189.907 5.333,189.640 5.258,189.583 5.167 C 189.527 5.075,189.297 5.000,189.073 5.000 C 188.850 5.000,188.667 4.925,188.667 4.833 C 188.667 4.742,188.375 4.667,188.018 4.667 C 187.595 4.667,187.336 4.580,187.273 4.417 C 187.218 4.272,186.968 4.167,186.682 4.167 C 186.409 4.167,186.140 4.092,186.083 4.000 C 186.027 3.908,185.610 3.833,185.157 3.833 C 184.704 3.833,184.333 3.758,184.333 3.667 C 184.333 3.573,183.864 3.500,183.260 3.500 C 182.669 3.500,182.140 3.425,182.083 3.333 C 182.019 3.229,180.304 3.167,177.490 3.167 C 174.608 3.167,173.000 3.226,173.000 3.333 M4.167 39.313 C 4.167 68.936,4.203 74.489,4.396 74.649 C 4.557 74.783,5.765 74.826,8.438 74.795 L 12.250 74.750 12.293 58.958 L 12.335 43.167 26.084 43.167 L 39.833 43.167 39.833 39.500 L 39.833 35.833 26.083 35.833 L 12.333 35.833 12.333 23.667 L 12.333 11.500 32.333 11.500 L 52.333 11.500 52.333 7.833 L 52.333 4.167 28.250 4.167 L 4.167 4.167 4.167 39.313 M226.375 39.458 L 226.417 74.750 238.046 74.793 C 248.280 74.830,249.688 74.805,249.773 74.584 C 249.853 74.375,250.321 74.333,252.601 74.333 C 254.311 74.333,255.333 74.271,255.333 74.167 C 255.333 74.073,255.806 74.000,256.417 74.000 C 257.028 74.000,257.500 73.927,257.500 73.833 C 257.500 73.742,257.912 73.667,258.417 73.667 C 258.921 73.667,259.333 73.592,259.333 73.500 C 259.333 73.408,259.596 73.333,259.917 73.333 C 260.237 73.333,260.500 73.258,260.500 73.167 C 260.500 73.075,260.720 73.000,260.988 73.000 C 261.257 73.000,261.589 72.887,261.726 72.750 C 261.864 72.613,262.127 72.500,262.312 72.500 C 262.496 72.500,262.693 72.425,262.750 72.333 C 262.807 72.242,263.074 72.167,263.343 72.167 C 263.613 72.167,263.833 72.092,263.833 72.000 C 263.833 71.908,263.979 71.833,264.157 71.833 C 264.335 71.833,264.527 71.758,264.583 71.667 C 264.640 71.575,264.869 71.500,265.093 71.500 C 265.317 71.500,265.500 71.433,265.500 71.351 C 265.500 71.270,265.688 71.156,265.917 71.098 C 266.146 71.041,266.333 70.920,266.333 70.830 C 266.333 70.740,266.483 70.667,266.667 70.667 C 266.850 70.667,267.000 70.592,267.000 70.500 C 267.000 70.408,267.136 70.333,267.302 70.333 C 267.468 70.333,267.765 70.183,267.962 70.000 C 268.158 69.817,268.400 69.667,268.499 69.667 C 268.737 69.667,269.516 69.166,269.853 68.796 C 270.001 68.633,270.245 68.500,270.395 68.500 C 270.544 68.500,270.667 68.425,270.667 68.333 C 270.667 68.242,270.745 68.167,270.840 68.167 C 271.024 68.167,271.274 67.987,271.940 67.375 C 272.165 67.169,272.385 67.000,272.430 67.000 C 272.475 67.000,272.761 66.756,273.067 66.458 C 273.372 66.160,273.834 65.767,274.092 65.583 C 274.693 65.157,275.490 64.360,275.917 63.759 C 276.100 63.501,276.494 63.039,276.792 62.733 C 277.090 62.428,277.333 62.141,277.333 62.096 C 277.333 62.052,277.502 61.834,277.708 61.613 C 278.378 60.896,278.829 60.255,278.831 60.020 C 278.832 59.893,278.971 59.668,279.140 59.520 C 279.309 59.371,279.653 58.875,279.906 58.417 C 280.158 57.958,280.432 57.512,280.515 57.425 C 280.599 57.338,280.667 57.132,280.667 56.967 C 280.667 56.802,280.742 56.667,280.833 56.667 C 280.925 56.667,281.000 56.517,281.000 56.333 C 281.000 56.150,281.061 56.000,281.135 56.000 C 281.303 56.000,281.833 54.818,281.833 54.444 C 281.833 54.291,281.908 54.167,282.000 54.167 C 282.092 54.167,282.167 54.017,282.167 53.833 C 282.167 53.650,282.242 53.500,282.333 53.500 C 282.425 53.500,282.500 53.237,282.500 52.917 C 282.500 52.596,282.575 52.333,282.667 52.333 C 282.758 52.333,282.833 52.116,282.833 51.851 C 282.833 51.576,282.941 51.328,283.083 51.273 C 283.228 51.218,283.333 50.968,283.333 50.682 C 283.333 50.409,283.408 50.140,283.500 50.083 C 283.592 50.027,283.667 49.685,283.667 49.323 C 283.667 48.962,283.734 48.667,283.817 48.667 C 283.971 48.667,284.109 47.793,284.270 45.792 C 284.320 45.173,284.430 44.667,284.514 44.667 C 284.729 44.667,284.716 34.217,284.500 34.083 C 284.408 34.027,284.333 33.497,284.333 32.907 C 284.333 32.302,284.261 31.833,284.167 31.833 C 284.075 31.833,284.000 31.421,284.000 30.917 C 284.000 30.412,283.925 30.000,283.833 30.000 C 283.742 30.000,283.667 29.738,283.667 29.417 C 283.667 29.096,283.592 28.833,283.500 28.833 C 283.408 28.833,283.333 28.623,283.333 28.365 C 283.333 28.108,283.223 27.751,283.089 27.574 C 282.954 27.396,282.842 27.044,282.839 26.792 C 282.836 26.540,282.758 26.333,282.667 26.333 C 282.575 26.333,282.500 26.146,282.500 25.917 C 282.500 25.688,282.425 25.500,282.333 25.500 C 282.242 25.500,282.167 25.275,282.167 25.000 C 282.167 24.725,282.092 24.500,282.000 24.500 C 281.908 24.500,281.833 24.399,281.833 24.276 C 281.833 23.941,281.332 23.000,281.154 23.000 C 281.070 23.000,281.000 22.813,281.000 22.583 C 281.000 22.354,280.925 22.167,280.833 22.167 C 280.742 22.167,280.667 22.017,280.667 21.833 C 280.667 21.650,280.592 21.500,280.500 21.500 C 280.408 21.500,280.333 21.350,280.333 21.167 C 280.333 20.983,280.258 20.833,280.167 20.833 C 280.075 20.833,280.000 20.721,280.000 20.583 C 280.000 20.446,279.925 20.333,279.833 20.333 C 279.742 20.333,279.667 20.218,279.667 20.078 C 279.667 19.938,279.554 19.780,279.417 19.727 C 279.279 19.674,279.167 19.489,279.167 19.316 C 279.167 19.142,279.092 19.000,279.000 19.000 C 278.908 19.000,278.833 18.887,278.833 18.750 C 278.833 18.612,278.758 18.500,278.667 18.500 C 278.575 18.500,278.500 18.406,278.500 18.292 C 278.500 18.015,277.762 17.167,277.522 17.167 C 277.418 17.167,277.333 17.054,277.333 16.917 C 277.333 16.779,277.258 16.667,277.167 16.667 C 277.075 16.667,277.000 16.552,277.000 16.411 C 277.000 16.108,272.922 12.000,272.621 12.000 C 272.507 12.000,272.189 11.739,271.915 11.420 C 271.641 11.101,271.285 10.839,271.125 10.837 C 270.965 10.835,270.833 10.758,270.833 10.667 C 270.833 10.575,270.755 10.500,270.659 10.500 C 270.563 10.500,270.304 10.331,270.084 10.125 C 269.361 9.449,269.185 9.333,268.877 9.333 C 268.710 9.333,268.465 9.183,268.333 9.000 C 268.201 8.817,267.960 8.667,267.797 8.667 C 267.633 8.667,267.500 8.592,267.500 8.500 C 267.500 8.408,267.321 8.333,267.101 8.333 C 266.882 8.333,266.659 8.221,266.606 8.083 C 266.554 7.946,266.396 7.833,266.255 7.833 C 266.115 7.833,266.000 7.758,266.000 7.667 C 266.000 7.575,265.813 7.500,265.583 7.500 C 265.354 7.500,265.167 7.425,265.167 7.333 C 265.167 7.242,265.021 7.167,264.843 7.167 C 264.665 7.167,264.473 7.092,264.417 7.000 C 264.360 6.908,264.135 6.833,263.917 6.833 C 263.698 6.833,263.473 6.758,263.417 6.667 C 263.360 6.575,263.174 6.500,263.004 6.500 C 262.834 6.500,262.668 6.421,262.636 6.325 C 262.577 6.148,261.716 5.876,260.708 5.716 C 260.410 5.669,260.167 5.563,260.167 5.482 C 260.167 5.400,259.829 5.333,259.417 5.333 C 259.004 5.333,258.667 5.258,258.667 5.167 C 258.667 5.075,258.334 5.000,257.927 5.000 C 257.519 5.000,257.140 4.925,257.083 4.833 C 257.027 4.742,256.454 4.667,255.812 4.667 C 254.995 4.667,254.568 4.591,254.393 4.417 C 254.175 4.198,252.376 4.167,240.238 4.167 L 226.333 4.167 226.375 39.458 M100.083 11.000 C 100.140 11.092,100.594 11.167,101.093 11.167 C 101.592 11.167,102.000 11.242,102.000 11.333 C 102.000 11.425,102.329 11.500,102.732 11.500 C 103.229 11.500,103.495 11.580,103.560 11.750 C 103.616 11.896,103.866 12.000,104.161 12.000 C 104.439 12.000,104.667 12.075,104.667 12.167 C 104.667 12.258,104.892 12.333,105.167 12.333 C 105.442 12.333,105.667 12.408,105.667 12.500 C 105.667 12.592,105.854 12.667,106.083 12.667 C 106.313 12.667,106.500 12.742,106.500 12.833 C 106.500 12.925,106.688 13.000,106.917 13.000 C 107.146 13.000,107.333 13.075,107.333 13.167 C 107.333 13.258,107.502 13.335,107.708 13.336 C 107.915 13.338,108.260 13.525,108.476 13.753 C 108.692 13.980,108.973 14.167,109.101 14.167 C 109.229 14.167,109.333 14.242,109.333 14.333 C 109.333 14.425,109.504 14.500,109.713 14.500 C 109.922 14.500,110.201 14.650,110.333 14.833 C 110.465 15.017,110.673 15.167,110.795 15.167 C 110.916 15.167,111.190 15.354,111.402 15.583 C 111.614 15.813,111.863 16.000,111.954 16.000 C 112.045 16.000,112.776 16.637,113.579 17.417 C 114.381 18.196,115.104 18.833,115.185 18.833 C 115.267 18.833,115.333 18.910,115.333 19.004 C 115.333 19.098,115.652 19.507,116.042 19.911 C 116.949 20.854,117.167 21.121,117.167 21.290 C 117.167 21.365,117.317 21.535,117.500 21.667 C 117.683 21.799,117.833 22.040,117.833 22.203 C 117.833 22.367,117.908 22.500,118.000 22.500 C 118.092 22.500,118.167 22.613,118.167 22.750 C 118.167 22.887,118.242 23.000,118.333 23.000 C 118.425 23.000,118.500 23.115,118.500 23.255 C 118.500 23.396,118.612 23.554,118.750 23.606 C 118.888 23.659,119.000 23.844,119.000 24.018 C 119.000 24.191,119.075 24.333,119.167 24.333 C 119.258 24.333,119.333 24.446,119.333 24.583 C 119.333 24.721,119.408 24.833,119.500 24.833 C 119.592 24.833,119.667 24.983,119.667 25.167 C 119.667 25.350,119.742 25.500,119.833 25.500 C 119.925 25.500,120.000 25.646,120.000 25.823 C 120.000 26.001,120.075 26.193,120.167 26.250 C 120.258 26.307,120.333 26.493,120.333 26.665 C 120.333 26.836,120.446 27.089,120.583 27.226 C 120.721 27.364,120.833 27.632,120.833 27.821 C 120.833 28.011,120.908 28.167,121.000 28.167 C 121.092 28.167,121.167 28.350,121.167 28.573 C 121.167 28.797,121.242 29.027,121.333 29.083 C 121.425 29.140,121.500 29.365,121.500 29.583 C 121.500 29.802,121.575 30.027,121.667 30.083 C 121.758 30.140,121.833 30.444,121.833 30.760 C 121.833 31.075,121.908 31.333,122.000 31.333 C 122.092 31.333,122.167 31.590,122.167 31.905 C 122.167 32.219,122.279 32.589,122.417 32.726 C 122.584 32.894,122.667 33.311,122.667 33.988 C 122.667 34.552,122.741 35.000,122.833 35.000 C 122.940 35.000,123.000 36.580,123.000 39.407 C 123.000 42.165,122.938 43.852,122.833 43.917 C 122.742 43.973,122.667 44.396,122.667 44.855 C 122.667 45.375,122.572 45.785,122.417 45.940 C 122.279 46.078,122.167 46.443,122.167 46.752 C 122.167 47.061,122.092 47.360,122.000 47.417 C 121.908 47.473,121.833 47.778,121.833 48.093 C 121.833 48.409,121.758 48.667,121.667 48.667 C 121.575 48.667,121.500 48.929,121.500 49.250 C 121.500 49.571,121.425 49.833,121.333 49.833 C 121.242 49.833,121.167 49.979,121.167 50.157 C 121.167 50.335,121.092 50.527,121.000 50.583 C 120.908 50.640,120.833 50.907,120.833 51.177 C 120.833 51.501,120.749 51.667,120.583 51.667 C 120.444 51.667,120.333 51.815,120.333 52.000 C 120.333 52.183,120.258 52.333,120.167 52.333 C 120.075 52.333,120.000 52.521,120.000 52.750 C 120.000 52.979,119.925 53.167,119.833 53.167 C 119.742 53.167,119.667 53.317,119.667 53.500 C 119.667 53.683,119.592 53.833,119.500 53.833 C 119.408 53.833,119.333 53.983,119.333 54.167 C 119.333 54.350,119.258 54.500,119.167 54.500 C 119.075 54.500,119.000 54.578,119.000 54.674 C 119.000 54.837,118.870 55.026,118.375 55.577 C 118.260 55.705,118.167 55.927,118.167 56.071 C 118.167 56.215,118.092 56.333,118.000 56.333 C 117.908 56.333,117.833 56.411,117.833 56.507 C 117.833 56.602,117.683 56.842,117.500 57.038 C 117.317 57.235,117.167 57.495,117.167 57.615 C 117.167 57.735,117.054 57.833,116.917 57.833 C 116.779 57.833,116.666 57.890,116.666 57.958 C 116.666 58.027,116.441 58.346,116.167 58.667 C 115.892 58.987,115.667 59.305,115.667 59.373 C 115.666 59.553,114.181 61.004,113.412 61.576 C 113.048 61.847,112.551 62.279,112.308 62.535 C 112.065 62.791,111.754 63.000,111.617 63.000 C 111.480 63.000,111.192 63.186,110.976 63.414 C 110.760 63.641,110.490 63.829,110.375 63.830 C 110.260 63.832,110.167 63.908,110.167 64.000 C 110.167 64.092,110.054 64.167,109.917 64.167 C 109.779 64.167,109.667 64.242,109.667 64.333 C 109.667 64.425,109.517 64.500,109.333 64.500 C 109.150 64.500,109.000 64.575,109.000 64.667 C 109.000 64.758,108.850 64.833,108.667 64.833 C 108.483 64.833,108.333 64.908,108.333 65.000 C 108.333 65.092,108.181 65.167,107.995 65.167 C 107.809 65.167,107.613 65.279,107.560 65.417 C 107.508 65.554,107.322 65.667,107.149 65.667 C 106.975 65.667,106.833 65.742,106.833 65.833 C 106.833 65.925,106.646 66.000,106.417 66.000 C 106.188 66.000,106.000 66.075,106.000 66.167 C 106.000 66.258,105.775 66.333,105.500 66.333 C 105.225 66.333,105.000 66.408,105.000 66.500 C 105.000 66.592,104.737 66.667,104.417 66.667 C 104.096 66.667,103.833 66.742,103.833 66.833 C 103.833 66.925,103.614 67.000,103.345 67.000 C 103.077 67.000,102.745 67.112,102.607 67.250 C 102.459 67.398,102.051 67.500,101.605 67.500 C 101.191 67.500,100.807 67.575,100.750 67.667 C 100.610 67.894,92.500 67.894,92.500 67.667 C 92.500 67.575,92.096 67.500,91.601 67.500 C 90.956 67.500,90.675 67.429,90.606 67.250 C 90.550 67.104,90.300 67.000,90.003 67.000 C 89.724 67.000,89.365 66.930,89.206 66.844 C 89.047 66.759,88.560 66.592,88.125 66.475 C 87.690 66.357,87.333 66.202,87.333 66.130 C 87.333 66.059,87.150 66.000,86.927 66.000 C 86.703 66.000,86.473 65.925,86.417 65.833 C 86.360 65.742,86.166 65.667,85.985 65.667 C 85.804 65.667,85.613 65.554,85.560 65.417 C 85.508 65.279,85.341 65.165,85.191 65.163 C 85.040 65.161,84.729 65.013,84.500 64.833 C 84.271 64.654,83.990 64.506,83.875 64.504 C 83.760 64.502,83.667 64.425,83.667 64.333 C 83.667 64.242,83.497 64.167,83.290 64.167 C 83.082 64.167,82.772 63.979,82.600 63.750 C 82.427 63.521,82.217 63.333,82.131 63.333 C 82.046 63.333,81.877 63.240,81.757 63.125 C 81.215 62.611,80.813 62.333,80.610 62.333 C 80.489 62.333,80.289 62.146,80.167 61.917 C 80.044 61.688,79.891 61.500,79.827 61.500 C 79.596 61.500,76.667 58.484,76.667 58.245 C 76.667 58.110,76.592 58.000,76.500 58.000 C 76.408 58.000,76.333 57.920,76.333 57.821 C 76.333 57.591,75.909 57.167,75.679 57.167 C 75.580 57.167,75.500 57.017,75.500 56.833 C 75.500 56.650,75.425 56.500,75.333 56.500 C 75.242 56.500,75.167 56.387,75.167 56.250 C 75.167 56.112,75.092 56.000,75.000 56.000 C 74.908 56.000,74.833 55.882,74.833 55.738 C 74.833 55.439,74.444 55.000,74.179 55.000 C 74.080 55.000,74.000 54.813,74.000 54.583 C 74.000 54.354,73.925 54.167,73.833 54.167 C 73.742 54.167,73.667 54.017,73.667 53.833 C 73.667 53.650,73.592 53.500,73.500 53.500 C 73.408 53.500,73.333 53.354,73.333 53.177 C 73.333 52.999,73.258 52.807,73.167 52.750 C 73.075 52.693,73.000 52.501,73.000 52.323 C 73.000 52.146,72.925 52.000,72.833 52.000 C 72.742 52.000,72.667 51.855,72.667 51.679 C 72.667 51.502,72.554 51.245,72.417 51.107 C 72.279 50.970,72.167 50.702,72.167 50.512 C 72.167 50.322,72.092 50.167,72.000 50.167 C 71.908 50.167,71.833 49.942,71.833 49.667 C 71.833 49.392,71.758 49.167,71.667 49.167 C 71.575 49.167,71.500 48.904,71.500 48.583 C 71.500 48.262,71.433 48.000,71.351 48.000 C 71.211 48.000,71.124 47.594,70.894 45.863 C 70.841 45.467,70.693 45.102,70.566 45.053 C 70.394 44.988,70.333 44.621,70.333 43.659 C 70.333 42.941,70.258 42.307,70.167 42.250 C 70.066 42.188,70.000 41.026,70.000 39.323 C 70.000 37.552,70.062 36.500,70.167 36.500 C 70.263 36.500,70.333 35.968,70.333 35.238 C 70.333 34.339,70.405 33.904,70.583 33.726 C 70.721 33.589,70.833 33.186,70.833 32.831 C 70.833 32.477,70.908 32.140,71.000 32.083 C 71.092 32.027,71.167 31.685,71.167 31.323 C 71.167 30.962,71.242 30.667,71.333 30.667 C 71.425 30.667,71.500 30.404,71.500 30.083 C 71.500 29.762,71.575 29.500,71.667 29.500 C 71.758 29.500,71.833 29.275,71.833 29.000 C 71.833 28.725,71.908 28.500,72.000 28.500 C 72.092 28.500,72.167 28.321,72.167 28.101 C 72.167 27.882,72.279 27.659,72.417 27.606 C 72.554 27.554,72.667 27.321,72.667 27.089 C 72.667 26.857,72.742 26.667,72.833 26.667 C 72.925 26.667,73.000 26.479,73.000 26.250 C 73.000 26.021,73.075 25.833,73.167 25.833 C 73.258 25.833,73.333 25.683,73.333 25.500 C 73.333 25.317,73.408 25.167,73.500 25.167 C 73.592 25.167,73.667 25.017,73.667 24.833 C 73.667 24.650,73.742 24.500,73.833 24.500 C 73.925 24.500,74.000 24.396,74.000 24.268 C 74.000 24.140,74.112 23.992,74.250 23.940 C 74.387 23.887,74.500 23.729,74.500 23.589 C 74.500 23.448,74.575 23.333,74.667 23.333 C 74.758 23.333,74.833 23.183,74.833 23.000 C 74.833 22.817,74.908 22.667,75.000 22.667 C 75.092 22.667,75.167 22.586,75.167 22.488 C 75.167 22.390,75.260 22.216,75.375 22.101 C 75.490 21.986,75.808 21.606,76.083 21.256 C 76.358 20.907,76.677 20.524,76.792 20.405 C 76.906 20.287,77.000 20.125,77.000 20.046 C 77.000 19.833,79.144 17.662,79.917 17.092 C 80.283 16.822,80.705 16.465,80.853 16.300 C 81.001 16.135,81.207 16.000,81.311 16.000 C 81.415 16.000,81.500 15.925,81.500 15.833 C 81.500 15.742,81.602 15.667,81.727 15.667 C 81.851 15.667,82.094 15.479,82.266 15.250 C 82.438 15.021,82.697 14.833,82.841 14.833 C 82.986 14.833,83.265 14.683,83.462 14.500 C 83.658 14.317,83.935 14.167,84.076 14.167 C 84.218 14.167,84.333 14.092,84.333 14.000 C 84.333 13.908,84.486 13.833,84.672 13.833 C 84.858 13.833,85.054 13.721,85.106 13.583 C 85.159 13.446,85.344 13.333,85.518 13.333 C 85.691 13.333,85.833 13.258,85.833 13.167 C 85.833 13.075,85.983 13.000,86.167 13.000 C 86.350 13.000,86.500 12.925,86.500 12.833 C 86.500 12.742,86.689 12.667,86.919 12.667 C 87.149 12.667,87.506 12.580,87.711 12.474 C 88.524 12.053,88.677 12.000,89.069 12.000 C 89.293 12.000,89.589 11.887,89.726 11.750 C 89.864 11.612,90.202 11.500,90.478 11.500 C 90.754 11.500,91.027 11.425,91.083 11.333 C 91.140 11.242,91.632 11.167,92.177 11.167 C 92.726 11.167,93.167 11.092,93.167 11.000 C 93.167 10.894,94.413 10.833,96.573 10.833 C 98.665 10.833,100.020 10.898,100.083 11.000 M181.000 11.000 C 181.000 11.093,181.444 11.167,182.000 11.167 C 182.556 11.167,183.000 11.241,183.000 11.333 C 183.000 11.425,183.292 11.500,183.649 11.500 C 184.072 11.500,184.331 11.587,184.394 11.750 C 184.450 11.896,184.699 12.000,184.995 12.000 C 185.273 12.000,185.500 12.075,185.500 12.167 C 185.500 12.258,185.762 12.333,186.083 12.333 C 186.404 12.333,186.667 12.408,186.667 12.500 C 186.667 12.592,186.817 12.667,187.000 12.667 C 187.183 12.667,187.333 12.742,187.333 12.833 C 187.333 12.925,187.516 13.000,187.740 13.000 C 187.964 13.000,188.193 13.075,188.250 13.167 C 188.307 13.258,188.480 13.335,188.635 13.336 C 188.790 13.338,189.093 13.525,189.309 13.753 C 189.525 13.980,189.844 14.167,190.017 14.167 C 190.191 14.167,190.333 14.242,190.333 14.333 C 190.333 14.425,190.467 14.500,190.630 14.500 C 190.793 14.500,191.035 14.650,191.167 14.833 C 191.299 15.017,191.578 15.167,191.787 15.167 C 191.996 15.167,192.167 15.247,192.167 15.345 C 192.167 15.596,192.599 16.000,192.868 16.000 C 192.992 16.000,193.201 16.150,193.333 16.333 C 193.465 16.517,193.670 16.667,193.787 16.667 C 193.904 16.667,194.002 16.760,194.004 16.875 C 194.006 16.990,194.277 17.308,194.607 17.583 C 195.370 18.219,196.114 18.963,196.750 19.726 C 197.025 20.056,197.325 20.328,197.418 20.330 C 197.510 20.332,197.692 20.577,197.822 20.875 C 197.952 21.173,198.195 21.538,198.362 21.686 C 198.530 21.834,198.667 22.023,198.667 22.105 C 198.667 22.186,198.854 22.456,199.083 22.703 C 199.313 22.950,199.500 23.268,199.500 23.409 C 199.500 23.551,199.561 23.667,199.636 23.667 C 199.710 23.667,199.874 23.929,200.000 24.250 C 200.126 24.571,200.290 24.833,200.364 24.833 C 200.439 24.833,200.500 24.983,200.500 25.167 C 200.500 25.352,200.611 25.500,200.750 25.500 C 200.906 25.500,201.000 25.657,201.000 25.917 C 201.000 26.146,201.075 26.333,201.167 26.333 C 201.258 26.333,201.333 26.484,201.333 26.669 C 201.333 26.854,201.408 27.154,201.500 27.336 C 201.592 27.518,201.742 27.816,201.833 27.998 C 201.925 28.180,202.000 28.475,202.000 28.655 C 202.000 28.834,202.075 29.027,202.167 29.083 C 202.258 29.140,202.333 29.327,202.333 29.498 C 202.333 29.669,202.446 29.922,202.583 30.060 C 202.721 30.197,202.833 30.540,202.833 30.821 C 202.833 31.103,202.908 31.333,203.000 31.333 C 203.092 31.333,203.167 31.671,203.167 32.083 C 203.167 32.496,203.242 32.833,203.333 32.833 C 203.427 32.833,203.500 33.306,203.500 33.917 C 203.500 34.528,203.573 35.000,203.667 35.000 C 203.774 35.000,203.833 36.580,203.833 39.407 C 203.833 42.165,203.771 43.852,203.667 43.917 C 203.575 43.973,203.500 44.428,203.500 44.927 C 203.500 45.425,203.425 45.833,203.333 45.833 C 203.242 45.833,203.167 46.171,203.167 46.583 C 203.167 46.996,203.092 47.333,203.000 47.333 C 202.908 47.333,202.833 47.625,202.833 47.982 C 202.833 48.405,202.746 48.664,202.583 48.727 C 202.437 48.783,202.333 49.033,202.333 49.328 C 202.333 49.606,202.258 49.833,202.167 49.833 C 202.075 49.833,202.000 49.979,202.000 50.157 C 202.000 50.335,201.925 50.527,201.833 50.583 C 201.742 50.640,201.667 50.907,201.667 51.177 C 201.667 51.446,201.592 51.667,201.500 51.667 C 201.408 51.667,201.333 51.817,201.333 52.000 C 201.333 52.183,201.258 52.333,201.167 52.333 C 201.075 52.333,201.000 52.521,201.000 52.750 C 201.000 53.009,200.906 53.167,200.750 53.167 C 200.611 53.167,200.500 53.315,200.500 53.500 C 200.500 53.683,200.425 53.833,200.333 53.833 C 200.242 53.833,200.167 53.983,200.167 54.167 C 200.167 54.350,200.106 54.500,200.031 54.500 C 199.957 54.500,199.793 54.762,199.667 55.083 C 199.541 55.404,199.377 55.667,199.302 55.667 C 199.228 55.667,199.165 55.760,199.163 55.875 C 199.162 55.990,198.899 56.383,198.580 56.748 C 198.261 57.114,198.000 57.478,198.000 57.557 C 198.000 57.636,197.662 58.042,197.250 58.461 C 196.838 58.879,196.500 59.305,196.500 59.407 C 196.500 59.509,196.350 59.701,196.167 59.833 C 195.983 59.965,195.833 60.170,195.833 60.287 C 195.833 60.404,195.751 60.500,195.650 60.500 C 195.549 60.500,195.268 60.711,195.025 60.969 C 194.782 61.226,194.452 61.486,194.292 61.547 C 194.131 61.607,194.000 61.734,194.000 61.828 C 194.000 61.923,193.918 62.000,193.817 62.000 C 193.716 62.000,193.424 62.225,193.167 62.500 C 192.910 62.775,192.614 63.000,192.509 63.000 C 192.404 63.000,192.117 63.188,191.869 63.417 C 191.622 63.646,191.342 63.833,191.247 63.833 C 191.152 63.833,190.965 63.983,190.833 64.167 C 190.701 64.350,190.422 64.500,190.213 64.500 C 190.004 64.500,189.833 64.575,189.833 64.667 C 189.833 64.758,189.683 64.833,189.500 64.833 C 189.317 64.833,189.167 64.908,189.167 65.000 C 189.167 65.092,189.017 65.167,188.833 65.167 C 188.648 65.167,188.500 65.278,188.500 65.417 C 188.500 65.572,188.343 65.667,188.083 65.667 C 187.854 65.667,187.667 65.742,187.667 65.833 C 187.667 65.925,187.517 66.000,187.333 66.000 C 187.150 66.000,187.000 66.075,187.000 66.167 C 187.000 66.258,186.737 66.333,186.417 66.333 C 186.096 66.333,185.833 66.408,185.833 66.500 C 185.833 66.592,185.608 66.667,185.333 66.667 C 185.058 66.667,184.833 66.742,184.833 66.833 C 184.833 66.925,184.576 67.000,184.262 67.000 C 183.948 67.000,183.578 67.112,183.440 67.250 C 183.292 67.398,182.885 67.500,182.438 67.500 C 182.025 67.500,181.640 67.575,181.583 67.667 C 181.443 67.894,173.333 67.894,173.333 67.667 C 173.333 67.575,172.929 67.500,172.434 67.500 C 171.789 67.500,171.509 67.429,171.440 67.250 C 171.380 67.094,171.126 67.000,170.765 67.000 C 170.447 67.000,170.140 66.925,170.083 66.833 C 170.027 66.742,169.802 66.667,169.583 66.667 C 169.365 66.667,169.140 66.592,169.083 66.500 C 169.027 66.408,168.797 66.333,168.573 66.333 C 168.350 66.333,168.167 66.258,168.167 66.167 C 168.167 66.075,167.984 66.000,167.760 66.000 C 167.536 66.000,167.307 65.925,167.250 65.833 C 167.193 65.742,166.999 65.667,166.818 65.667 C 166.637 65.667,166.446 65.554,166.394 65.417 C 166.341 65.279,166.156 65.167,165.982 65.167 C 165.809 65.167,165.667 65.092,165.667 65.000 C 165.667 64.908,165.554 64.833,165.417 64.833 C 165.279 64.833,165.167 64.758,165.167 64.667 C 165.167 64.575,165.017 64.500,164.833 64.500 C 164.650 64.500,164.500 64.425,164.500 64.333 C 164.500 64.242,164.350 64.167,164.167 64.167 C 163.983 64.167,163.833 64.092,163.833 64.000 C 163.833 63.908,163.721 63.833,163.583 63.833 C 163.446 63.833,163.333 63.721,163.333 63.583 C 163.333 63.446,163.200 63.333,163.037 63.333 C 162.874 63.333,162.632 63.183,162.500 63.000 C 162.368 62.817,162.164 62.667,162.047 62.667 C 161.929 62.667,161.833 62.592,161.833 62.500 C 161.833 62.408,161.683 62.333,161.500 62.333 C 161.317 62.333,161.167 62.273,161.167 62.199 C 161.167 62.010,160.069 60.833,159.892 60.833 C 159.812 60.833,159.597 60.634,159.415 60.391 C 158.939 59.755,158.218 59.000,158.088 59.000 C 157.891 59.000,157.500 58.531,157.500 58.294 C 157.500 58.168,157.238 57.769,156.918 57.408 C 156.045 56.422,156.000 56.362,156.000 56.174 C 156.000 56.078,155.925 56.000,155.833 56.000 C 155.742 56.000,155.667 55.867,155.667 55.703 C 155.667 55.540,155.517 55.299,155.333 55.167 C 155.150 55.035,155.000 54.755,155.000 54.547 C 155.000 54.338,154.925 54.167,154.833 54.167 C 154.742 54.167,154.667 54.052,154.667 53.911 C 154.667 53.771,154.554 53.613,154.417 53.560 C 154.279 53.508,154.167 53.285,154.167 53.066 C 154.167 52.846,154.092 52.667,154.000 52.667 C 153.908 52.667,153.833 52.517,153.833 52.333 C 153.833 52.150,153.777 52.000,153.707 52.000 C 153.569 52.000,153.167 50.823,153.167 50.419 C 153.167 50.280,153.092 50.167,153.000 50.167 C 152.908 50.167,152.833 50.031,152.833 49.865 C 152.833 49.699,152.723 49.418,152.589 49.240 C 152.454 49.062,152.342 48.710,152.339 48.458 C 152.336 48.206,152.258 48.000,152.167 48.000 C 152.075 48.000,152.000 47.704,152.000 47.343 C 152.000 46.982,151.925 46.640,151.833 46.583 C 151.742 46.527,151.667 46.147,151.667 45.740 C 151.667 45.333,151.592 45.000,151.500 45.000 C 151.404 45.000,151.333 44.476,151.333 43.760 C 151.333 43.078,151.258 42.473,151.167 42.417 C 151.066 42.354,151.000 41.168,151.000 39.417 C 151.000 37.665,151.066 36.479,151.167 36.417 C 151.258 36.360,151.333 35.760,151.333 35.083 C 151.333 34.407,151.408 33.807,151.500 33.750 C 151.592 33.693,151.667 33.314,151.667 32.907 C 151.667 32.500,151.742 32.167,151.833 32.167 C 151.925 32.167,152.000 31.829,152.000 31.417 C 152.000 31.004,152.075 30.667,152.167 30.667 C 152.258 30.667,152.333 30.412,152.333 30.101 C 152.333 29.752,152.429 29.499,152.583 29.440 C 152.721 29.387,152.833 29.154,152.833 28.922 C 152.833 28.690,152.908 28.500,153.000 28.500 C 153.092 28.500,153.167 28.313,153.167 28.083 C 153.167 27.854,153.242 27.667,153.333 27.667 C 153.425 27.667,153.500 27.442,153.500 27.167 C 153.500 26.892,153.575 26.667,153.667 26.667 C 153.758 26.667,153.833 26.479,153.833 26.250 C 153.833 26.021,153.908 25.833,154.000 25.833 C 154.092 25.833,154.167 25.683,154.167 25.500 C 154.167 25.315,154.278 25.167,154.417 25.167 C 154.556 25.167,154.667 25.019,154.667 24.833 C 154.667 24.650,154.742 24.500,154.833 24.500 C 154.925 24.500,155.000 24.387,155.000 24.250 C 155.000 24.113,155.075 24.000,155.167 24.000 C 155.258 24.000,155.333 23.850,155.333 23.667 C 155.333 23.483,155.408 23.333,155.500 23.333 C 155.592 23.333,155.667 23.183,155.667 23.000 C 155.667 22.817,155.742 22.667,155.833 22.667 C 155.925 22.667,156.000 22.554,156.000 22.417 C 156.000 22.279,156.112 22.167,156.250 22.167 C 156.387 22.167,156.500 22.073,156.500 21.958 C 156.500 21.844,156.669 21.550,156.875 21.306 C 157.741 20.279,157.833 20.157,157.833 20.038 C 157.833 19.970,158.094 19.689,158.413 19.415 C 158.732 19.141,158.994 18.857,158.996 18.784 C 159.001 18.630,159.771 17.833,159.917 17.833 C 159.971 17.833,160.188 17.665,160.400 17.458 C 161.042 16.832,161.662 16.333,161.798 16.333 C 161.869 16.333,162.035 16.183,162.167 16.000 C 162.299 15.817,162.505 15.667,162.625 15.667 C 162.745 15.667,162.887 15.554,162.940 15.417 C 162.992 15.279,163.140 15.167,163.268 15.167 C 163.396 15.167,163.500 15.092,163.500 15.000 C 163.500 14.908,163.633 14.833,163.797 14.833 C 163.960 14.833,164.201 14.683,164.333 14.500 C 164.465 14.317,164.658 14.167,164.761 14.167 C 165.067 14.167,166.000 13.655,166.000 13.488 C 166.000 13.403,166.150 13.333,166.333 13.333 C 166.517 13.333,166.667 13.258,166.667 13.167 C 166.667 13.075,166.854 13.000,167.083 13.000 C 167.313 13.000,167.500 12.925,167.500 12.833 C 167.500 12.742,167.683 12.667,167.907 12.667 C 168.131 12.667,168.360 12.592,168.417 12.500 C 168.473 12.408,168.703 12.333,168.927 12.333 C 169.150 12.333,169.333 12.258,169.333 12.167 C 169.333 12.075,169.553 12.000,169.821 12.000 C 170.090 12.000,170.422 11.887,170.560 11.750 C 170.697 11.612,171.035 11.500,171.312 11.500 C 171.588 11.500,171.860 11.425,171.917 11.333 C 171.973 11.242,172.465 11.167,173.010 11.167 C 173.559 11.167,174.000 11.092,174.000 11.000 C 174.000 10.894,175.278 10.833,177.500 10.833 C 179.722 10.833,181.000 10.894,181.000 11.000 M254.333 12.167 C 254.333 12.258,254.704 12.333,255.157 12.333 C 255.610 12.333,256.027 12.408,256.083 12.500 C 256.140 12.592,256.482 12.667,256.843 12.667 C 257.204 12.667,257.500 12.742,257.500 12.833 C 257.500 12.925,257.762 13.000,258.083 13.000 C 258.404 13.000,258.667 13.075,258.667 13.167 C 258.667 13.258,258.798 13.336,258.958 13.339 C 259.119 13.342,259.396 13.454,259.574 13.589 C 259.751 13.723,260.033 13.833,260.199 13.833 C 260.364 13.833,260.500 13.908,260.500 14.000 C 260.500 14.092,260.650 14.167,260.833 14.167 C 261.017 14.167,261.167 14.242,261.167 14.333 C 261.167 14.425,261.354 14.500,261.583 14.500 C 261.813 14.500,262.000 14.575,262.000 14.667 C 262.000 14.758,262.150 14.833,262.333 14.833 C 262.517 14.833,262.667 14.908,262.667 15.000 C 262.667 15.092,262.745 15.167,262.840 15.167 C 263.004 15.167,263.192 15.297,263.744 15.792 C 263.872 15.906,264.077 16.000,264.201 16.000 C 264.325 16.000,264.535 16.150,264.667 16.333 C 264.799 16.517,264.984 16.667,265.079 16.667 C 265.173 16.667,265.562 16.948,265.943 17.292 C 266.938 18.189,267.323 18.500,267.439 18.500 C 267.626 18.500,269.667 20.723,269.667 20.926 C 269.667 21.088,270.482 21.833,270.659 21.833 C 270.755 21.833,270.833 21.983,270.833 22.167 C 270.833 22.350,270.908 22.500,271.000 22.500 C 271.092 22.500,271.167 22.613,271.167 22.750 C 271.167 22.887,271.242 23.000,271.333 23.000 C 271.425 23.000,271.500 23.094,271.500 23.208 C 271.500 23.323,271.688 23.635,271.917 23.901 C 272.146 24.167,272.333 24.486,272.333 24.609 C 272.333 24.732,272.408 24.833,272.500 24.833 C 272.592 24.833,272.667 24.932,272.667 25.052 C 272.667 25.172,272.817 25.431,273.000 25.628 C 273.183 25.825,273.333 26.139,273.333 26.326 C 273.333 26.514,273.408 26.667,273.500 26.667 C 273.592 26.667,273.667 26.777,273.667 26.911 C 273.667 27.212,274.204 28.396,274.375 28.472 C 274.444 28.503,274.500 28.747,274.500 29.014 C 274.500 29.281,274.575 29.500,274.667 29.500 C 274.758 29.500,274.833 29.721,274.833 29.990 C 274.833 30.260,274.908 30.527,275.000 30.583 C 275.092 30.640,275.167 30.902,275.167 31.167 C 275.167 31.431,275.242 31.693,275.333 31.750 C 275.425 31.807,275.500 32.151,275.500 32.515 C 275.500 32.950,275.586 33.210,275.750 33.273 C 275.936 33.344,276.000 33.641,276.000 34.434 C 276.000 35.034,276.073 35.500,276.167 35.500 C 276.273 35.500,276.333 36.889,276.333 39.333 C 276.333 41.778,276.273 43.167,276.167 43.167 C 276.073 43.167,276.000 43.633,276.000 44.232 C 276.000 45.026,275.936 45.322,275.750 45.394 C 275.586 45.457,275.500 45.717,275.500 46.152 C 275.500 46.516,275.425 46.860,275.333 46.917 C 275.242 46.973,275.167 47.315,275.167 47.677 C 275.167 48.038,275.092 48.333,275.000 48.333 C 274.908 48.333,274.833 48.596,274.833 48.917 C 274.833 49.237,274.758 49.500,274.667 49.500 C 274.575 49.500,274.500 49.650,274.500 49.833 C 274.500 50.017,274.433 50.167,274.352 50.167 C 274.270 50.167,274.155 50.429,274.094 50.750 C 274.034 51.071,273.913 51.333,273.826 51.333 C 273.738 51.333,273.667 51.483,273.667 51.667 C 273.667 51.850,273.592 52.000,273.500 52.000 C 273.408 52.000,273.333 52.150,273.333 52.333 C 273.333 52.517,273.258 52.667,273.167 52.667 C 273.075 52.667,273.000 52.854,273.000 53.083 C 273.000 53.313,272.925 53.500,272.833 53.500 C 272.742 53.500,272.667 53.595,272.667 53.710 C 272.667 53.826,272.479 54.122,272.250 54.369 C 272.021 54.617,271.833 54.918,271.833 55.039 C 271.833 55.161,271.683 55.368,271.500 55.500 C 271.317 55.632,271.167 55.874,271.167 56.037 C 271.167 56.200,271.092 56.333,271.000 56.333 C 270.908 56.333,270.833 56.446,270.833 56.583 C 270.833 56.721,270.739 56.833,270.623 56.833 C 270.507 56.833,270.227 57.133,270.000 57.500 C 269.773 57.867,269.531 58.167,269.461 58.167 C 269.391 58.167,269.333 58.247,269.333 58.345 C 269.333 58.536,268.924 59.000,268.756 59.000 C 268.625 59.000,267.500 60.125,267.500 60.256 C 267.500 60.457,267.018 60.833,266.762 60.833 C 266.618 60.833,266.500 60.908,266.500 61.000 C 266.500 61.092,266.406 61.168,266.292 61.170 C 266.177 61.172,265.859 61.435,265.585 61.754 C 265.311 62.072,264.971 62.333,264.830 62.333 C 264.689 62.333,264.465 62.483,264.333 62.667 C 264.201 62.850,263.960 63.000,263.797 63.000 C 263.633 63.000,263.500 63.075,263.500 63.167 C 263.500 63.258,263.348 63.333,263.161 63.333 C 262.975 63.333,262.780 63.446,262.727 63.583 C 262.674 63.721,262.489 63.833,262.316 63.833 C 262.142 63.833,262.000 63.908,262.000 64.000 C 262.000 64.092,261.887 64.167,261.750 64.167 C 261.612 64.167,261.500 64.242,261.500 64.333 C 261.500 64.425,261.317 64.500,261.093 64.500 C 260.869 64.500,260.640 64.575,260.583 64.667 C 260.527 64.758,260.335 64.833,260.157 64.833 C 259.979 64.833,259.833 64.908,259.833 65.000 C 259.833 65.092,259.654 65.167,259.434 65.167 C 259.215 65.167,258.992 65.279,258.940 65.417 C 258.884 65.563,258.634 65.667,258.339 65.667 C 258.061 65.667,257.833 65.742,257.833 65.833 C 257.833 65.925,257.533 66.000,257.167 66.000 C 256.800 66.000,256.500 66.075,256.500 66.167 C 256.500 66.258,256.162 66.333,255.750 66.333 C 255.338 66.333,255.000 66.403,255.000 66.487 C 255.000 66.759,252.444 66.857,243.292 66.932 L 234.333 67.006 234.333 39.503 L 234.333 12.000 244.333 12.000 C 250.889 12.000,254.333 12.057,254.333 12.167 " stroke="none" fill="#142c14" fill-rule="evenodd"></path></g></svg>